<svg id="Layer_1" data-name="Layer 1" xmlns="http://www.w3.org/2000/svg" viewBox="0 0 502.64 191.64"><defs><style>.cls-1{fill:#ce3828;}.cls-2{fill:#585856;}.cls-3{fill:#585857;}.cls-4{fill:#9e2d21;}.cls-5{fill:#a62f23;}.cls-6{fill:#b63426;}.cls-7{fill:#ce3929;}.cls-8{fill:#ac3024;}.cls-9{fill:#bf3727;}.cls-10{fill:#b13225;}.cls-11{fill:#c73827;}.cls-12{fill:#922b1e;}.cls-13{fill:#982c20;}.cls-14{fill:#8a281c;}</style></defs><path class="cls-1" d="M129.26,64.09A20.43,20.43,0,0,1,132,76.47a24.42,24.42,0,0,1-5.54,13.88,113.09,113.09,0,0,1-12.64,13.25c-4.06,3.67-7.56,3.32-10.83-1.12-2.71-3.67-5.37-7.35-8.83-10.37a5,5,0,0,0-2.85-1.4,4.9,4.9,0,0,0-5.09,2.81q-4.24,7.64-8.52,15.25L38.36,179.23c-.17.31-.36.61-.59,1-2.13-6.73-2.94-13.24,0-20q9.9-22.65,19-45.65c6.43-16.13,12.48-32.4,17.76-48.95a32.11,32.11,0,0,1,2.18-5.3,17.83,17.83,0,0,1,1.56-2.54c2-2.66,4.27-3.36,7.36-2.23a42.25,42.25,0,0,1,12.68,7.78,76.15,76.15,0,0,1,11.36,12c1.17,1.53,2.42,3,4.61,3.05.12.94,1,.86,1.58,1.11a6.46,6.46,0,0,0,2,.82c.3,0,.6.08.89.14a10.4,10.4,0,0,0,3.34,0c4.54-1.22,6.27-4.74,7.22-8.87a17.42,17.42,0,0,1,.38-1.74,3,3,0,0,0,0-1.88c-.33-.92-.32-1.92-.68-2.83a1.54,1.54,0,0,1,0-.74A.69.69,0,0,1,129.26,64.09Z"/><path class="cls-1" d="M166.92,59.79c1-2.71,1-2.69,3.76-2.67a39.16,39.16,0,0,1,12.63,1.75,17.51,17.51,0,0,1,2.85,1.23c4.35,2.38,6,6.22,4.59,11a28.44,28.44,0,0,1-6.14,10.44c-5.76,6.78-12.65,12.29-19.89,17.37C148.6,110.2,131.17,119,113,126.44A252.34,252.34,0,0,1,70.05,140a6.69,6.69,0,0,1-2.62.34c2.7-4.84,5.39-9.63,8-14.44a1.83,1.83,0,0,1,1.45-.87c29.2-6.83,56.3-18.45,80.88-35.72a65.76,65.76,0,0,0,14.65-13.51,17.85,17.85,0,0,0,3.41-6.53,6.29,6.29,0,0,0-3.18-7.51A19.49,19.49,0,0,0,166.92,59.79Z"/><path class="cls-1" d="M135.22,92.62l10.2-26.19a59.46,59.46,0,0,0-7,7.1A29,29,0,0,0,135.7,62.4a24.72,24.72,0,0,0-2.86-4.69.85.85,0,0,1,0-1.3c12-14.65,24.19-29,38.33-41.67q3.67-3.27,7.61-6.2c.7-.52,1.39-1.07,2.24-.37s.47,1.41.16,2.17c-6,15-12.6,29.79-19.14,44.58-3.93,8.89-8,17.73-12,26.59-2.15,4.75-5.36,8.48-10.42,10.3A11.93,11.93,0,0,1,135.22,92.62Z"/><path class="cls-2" d="M209.28,68.7V85.35c0,1.71-.05,3.43,0,5.15,0,.81-.24,1-1,1-1.19-.06-2.4,0-3.59,0-.63,0-.92-.09-.92-.83q0-16.11,0-32.22c0-.7.23-.89.9-.88,1.47.05,3,.08,4.43,0a1.49,1.49,0,0,1,1.74,1.15c3.07,7.86,6.2,15.7,9.32,23.55.14.36.31.72.56,1.29,1.14-2.88,2.2-5.58,3.27-8.29,2.16-5.52,4.35-11,6.47-16.58a1.43,1.43,0,0,1,1.64-1.12c1.44.08,2.88.06,4.32,0,.79,0,1,.22,1,1,0,4.11,0,8.22,0,12.34,0,6.5,0,13,0,19.52,0,.83-.19,1.12-1,1.07a25.12,25.12,0,0,0-3.47,0c-.86.05-1-.24-1-1.07,0-7.3,0-14.61,0-22-.49.32-.52.83-.69,1.24-2.71,6.94-5.42,13.87-8.08,20.83a1.28,1.28,0,0,1-1.45,1c-3.06,0-3.06,0-4.16-2.8q-3.81-9.61-7.63-19.22c-.11-.28-.22-.56-.34-.84Z"/><path class="cls-1" d="M56.69,97.34c-.86,2.23-1.37,4.21-3.23,5.68a42.19,42.19,0,0,0-8.67,9.22,16,16,0,0,0-2.64,5.7,6.13,6.13,0,0,0,2.76,6.84.89.89,0,0,1,.41,1.32q-3.3,7.82-6.53,15.65c-.2.47-.37.82-1,.7a25.81,25.81,0,0,1-8-2.41c-4.48-2.4-6.12-6.29-4.69-11.16,1.24-4.28,3.83-7.77,6.7-11C37.52,111.29,44.29,106,51.36,101,53,99.8,54.76,98.66,56.69,97.34Z"/><path class="cls-2" d="M273.13,69.22a9,9,0,0,1,9-2.57,8.17,8.17,0,0,1,6.32,8.13c.05,5.27,0,10.54,0,15.8,0,.65-.13.93-.85.9-1.27,0-2.56-.06-3.83,0-.8,0-.9-.3-.9-1q0-7.07,0-14.12c0-2-.59-3.8-2.68-4.66A5.46,5.46,0,0,0,274.38,73a4.24,4.24,0,0,0-1.27,3.11c0,4.75,0,9.5,0,14.25,0,.82-.18,1.12-1,1.07-1.23-.07-2.47,0-3.71,0-.64,0-.81-.19-.81-.81q0-11.43,0-22.87c0-.71.25-.87.9-.85A33.47,33.47,0,0,0,272,67c.91-.06,1.35.18,1.19,1.16A7.52,7.52,0,0,0,273.13,69.22Z"/><path class="cls-2" d="M372.22,86.15c0,1.64,0,3.1,0,4.56,0,.47-.29.62-.64.73-3,1-5.9,1-8.57-.94A5.5,5.5,0,0,1,360.67,86q-.14-6.47-.07-12.93c0-1.16-.19-1.59-1.47-1.53-2.45.12-2.45,0-2.45-2.47,0-2.08,0-2.08,2.06-2.08,1.83,0,1.83,0,1.83-1.84,0-1.32,0-2.63,0-3.95,0-.61.19-.86.83-.84,1.31,0,2.63,0,3.95,0,.65,0,.83.23.81.84,0,1.64,0,3.27,0,4.91,0,.67.18.92.88.89,1.23,0,2.48,0,3.71,0,.71,0,1,.15,1,.93a27.47,27.47,0,0,0,0,2.87c0,.63-.18.84-.81.82-1.24,0-2.48.05-3.72,0-.89-.06-1,.29-1,1.08,0,3.79,0,7.59,0,11.38,0,2.41,1.32,3.48,3.71,3.08A6.44,6.44,0,0,0,372.22,86.15Z"/><path class="cls-3" d="M323.5,69.15a6.93,6.93,0,0,1,7.21-2.6,1,1,0,0,1,.91,1.12c-.06,1.55,0,3.11,0,4.83a6.89,6.89,0,0,0-3.91-.73,4.53,4.53,0,0,0-4.28,4.59c0,4.67,0,9.34,0,14,0,.92-.26,1.18-1.15,1.12a23.41,23.41,0,0,0-3.35,0c-.89.06-1.15-.2-1.14-1.12,0-6.54,0-13.09,0-19.64,0-1.22-.54-2.86.25-3.56s2.28-.17,3.47-.2a1.92,1.92,0,0,1,.24,0c1.57,0,1.57,0,1.63,1.56C323.42,68.67,323.46,68.82,323.5,69.15Z"/><path class="cls-2" d="M377.16,113.23a2.58,2.58,0,0,0-.48,0,3.56,3.56,0,0,1-3.95-1.84c-1.81-2.92-6.64-2.57-8.42.44a9.69,9.69,0,0,0,0,10.45c1.19,2,3.15,2.59,5.38,2.29a4.57,4.57,0,0,0,3.93-3.36c1.06-.55,2.19-.23,3.28-.23.64,0,.28.61.2.92a8.22,8.22,0,0,1-7.53,6c-6.56.35-9.83-4.64-10.31-9.94a12.07,12.07,0,0,1,1-5.84c2.45-5.77,9.41-7.82,14.08-4.1A6.49,6.49,0,0,1,377.16,113.23Z"/><path class="cls-3" d="M231.25,126.16a5.82,5.82,0,0,1-3.93,1.7,5.07,5.07,0,0,1-5.47-5.21c0-3.15,0-6.3,0-9.45,0-.67.16-.88.86-.9,2.58,0,2.58-.08,2.58,2.53,0,2.31,0,4.62,0,6.94,0,1.2.31,2.3,1.64,2.77a3.34,3.34,0,0,0,3.61-.91,2.68,2.68,0,0,0,.68-2c0-2.71,0-5.43,0-8.14,0-.88.14-1.26,1.15-1.23,2.35.07,2.35,0,2.35,2.41,0,3.91,0,7.82,0,11.73,0,.83-.24,1.16-1.08,1.06a5.22,5.22,0,0,0-1.31,0C231.48,127.61,231,127.32,231.25,126.16Z"/><path class="cls-3" d="M344.41,117c0-3.16,0-6.31,0-9.47,0-.77.19-1,1-1,2.6,0,2.6,0,2.6,2.61,0,4.71,0,9.42,0,14.13,0,.85.24,1.07,1.07,1.06,2.64,0,5.28,0,7.91,0,.86,0,1.18.16,1.16,1.1-.06,2.1,0,2.1-2.05,2.1-3.48,0-7,0-10.43,0-1,0-1.26-.31-1.24-1.28C344.45,123.15,344.41,120.07,344.41,117Z"/><path class="cls-3" d="M331.7,115.38c0,2.48.09,5,0,7.42-.07,1.32.4,1.57,1.59,1.53,2.47-.09,4.95,0,7.43,0,.9,0,1.15.22,1.13,1.12-.05,2.08,0,2.08-2.08,2.08-3.51,0-7,0-10.54,0-.83,0-1.09-.21-1.09-1.07q0-9.45,0-18.92c0-.8.25-1,1-1,2.57,0,2.57,0,2.57,2.51Z"/><path class="cls-3" d="M246.26,124.31a11.54,11.54,0,0,1,.13,2.17c.08.72-.31,1-.92,1.15-3.6,1-6.34-1-6.34-4.73,0-2.23,0-4.47,0-6.7,0-.85-.23-1.12-1.06-1-.43,0-1.16.29-1.28-.23a5,5,0,0,1,0-2.37c.13-.48.86-.24,1.31-.21.75,0,1.13-.16,1-1a3,3,0,0,1,0-.6c0-2.74.18-2.89,2.94-2.52.38.05.6.14.58.56,0,.16,0,.32,0,.48,0,1-.3,2.14.14,2.8s1.71.17,2.61.23c.43,0,.6.12.65.6.24,2.2.19,2.35-2,2.23-1.27-.07-1.53.35-1.47,1.51.1,1.91,0,3.83,0,5.74,0,2.19.91,2.82,3,2.13Z"/><path class="cls-2" d="M309.73,120c0-1.32,0-2.63,0-4,0-.7-.23-.89-.9-.86-.48,0-1.26.28-1.41-.21a5.9,5.9,0,0,1,0-2.37c.07-.45.62-.29.93-.24,1.2.19,1.58-.33,1.38-1.44v-.12c0-2.61,0-2.59,2.57-2.55.66,0,1,.17.88.87a1.45,1.45,0,0,0,0,.36c0,.91-.27,2.05.17,2.66s1.63.16,2.5.19c.47,0,.69.1.73.65.17,2.22.19,2.29-2,2.18-1.17,0-1.48.27-1.41,1.43a54.22,54.22,0,0,1,0,6c-.13,2.06,1.28,2.6,2.74,2,.93-.35,1.11-.18,1.08.78-.05,2.14-.27,2.41-2.43,2.47-3.08.07-4.79-1.59-4.81-4.64Z"/><path class="cls-2" d="M305.78,115.61a15.61,15.61,0,0,0-1.83-.29,2.88,2.88,0,0,0-3.22,3.14c0,2.71,0,5.43,0,8.14,0,.64-.14.88-.85.9-2.57,0-2.57.08-2.57-2.53,0-3.87,0-7.73,0-11.6,0-.82.2-1.18,1.06-1.06a3.84,3.84,0,0,0,1.07,0c.95-.13,1.55.09,1.24,1.51a4.48,4.48,0,0,1,4.21-1.79c.62.06.95.25.91,1C305.74,113.85,305.78,114.72,305.78,115.61Z"/><path class="cls-4" d="M129.26,64.09l0,.28c-.84-.69-1.35-.36-1.93.43-3.44,4.66-7,9.25-10.5,13.85a3.7,3.7,0,0,1-1,1A2.56,2.56,0,0,1,114.1,79c-.62-.42,0-.48.23-.64,1.5-.43,1.85-1.74,2.26-3A4.9,4.9,0,0,1,118,71.9c2.63-3.39,5.18-6.84,7.81-10.23.33-.41.56-1,1.27-.89A10.35,10.35,0,0,1,129.26,64.09Z"/><path class="cls-5" d="M127.1,60.78a37.82,37.82,0,0,0-4,5c-2,2.53-3.87,5.14-5.89,7.64-.53.66-.12,1.42-.59,2a24.79,24.79,0,0,0-.51-4.78c2.81-3.7,5.65-7.39,8.43-11.11.18-.24.32-.59.74-.42A4.88,4.88,0,0,1,127.1,60.78Z"/><path class="cls-6" d="M120,57.16a4.72,4.72,0,0,1,2.12.5c-2.19,3.19-4.56,6.23-7,9.27a.52.52,0,0,1-.31.16l-1.42-2.18c-.26-.44,0-.76.25-1.08,1.52-2.07,3.08-4.11,4.66-6.15A1.39,1.39,0,0,1,120,57.16Z"/><path class="cls-7" d="M109.11,62.17a13.43,13.43,0,0,0-6.39.33c-.44.13-1,.46-1.3,0s.26-.93.6-1.24c2.14-1.93,4.86-2.67,7.52-3.49a22.12,22.12,0,0,1,2.45-.49c.34.59-.12,1-.4,1.35A30.17,30.17,0,0,0,109.11,62.17Z"/><path class="cls-8" d="M125.25,59.08c-2.49,3.27-5,6.55-7.49,9.8-.49.63-.8,1.47-1.68,1.73a4.93,4.93,0,0,1-.49-1.68c-.26-.45,0-.75.29-1.05,2.38-2.83,4.46-5.89,6.77-8.77.37-.46.69-1,1.44-.76A2.17,2.17,0,0,1,125.25,59.08Z"/><path class="cls-9" d="M120,57.16a1.57,1.57,0,0,0-1.47.76c-1.56,2.15-3.22,4.23-4.82,6.34a2.71,2.71,0,0,0-.28.65l-2.18-1.86c-.2-.51.19-.81.44-1.14a41.48,41.48,0,0,0,2.52-3.44,3.16,3.16,0,0,1,3.89-1.54A3.83,3.83,0,0,1,120,57.16Z"/><path class="cls-10" d="M124.09,58.35a1.42,1.42,0,0,0-1,.69c-2.45,3.09-4.63,6.39-7.25,9.35a1.84,1.84,0,0,0-.21.54l-.76-1.84c1.74-2.35,3.46-4.72,5.24-7a8.18,8.18,0,0,1,2-2.39A4.28,4.28,0,0,1,124.09,58.35Z"/><path class="cls-11" d="M118.08,56.93a3.39,3.39,0,0,0-3.72,1.8c-.92,1.52-2.08,2.89-3.13,4.32l-2.12-.88c-.28-.85.48-1.25.82-1.82.63-1.07,1.7-1.86,2.06-3.12A17.33,17.33,0,0,1,118.08,56.93Z"/><path class="cls-12" d="M129.27,65.08c.62.88.42,2,.73,2.91a.85.85,0,0,1,.05.68c-2.91,3.61-5.64,7.36-8.46,11-.33.42-.55,1-1.2,1.08a5.34,5.34,0,0,1-1.69-.12l-1,0c-.47-.8.2-1.27.58-1.77,3-4,6.13-8.08,9.19-12.11.26-.35.51-.72.8-1S128.8,65.07,129.27,65.08Z"/><path class="cls-13" d="M129.27,65.08l-7.17,9.29q-1.81,2.35-3.59,4.72c-.35.46-.82.89-.76,1.56a5.18,5.18,0,0,1-1.92-1A33.23,33.23,0,0,1,119.24,75c2.6-3.54,5.28-7,7.93-10.53l.14-.19c1-1.22,1.08-1.22,1.92.07C129.24,64.6,129.26,64.84,129.27,65.08Z"/><path class="cls-14" d="M120.63,80.65c1.77-2.75,3.93-5.22,5.86-7.86.88-1.21,1.84-2.37,2.73-3.57.2-.27.37-.52.73-.53a1.35,1.35,0,0,1,.05,1.19,16.71,16.71,0,0,1-2.24,6.81,8.07,8.07,0,0,1-5.49,4A2.49,2.49,0,0,1,120.63,80.65Z"/><path class="cls-2" d="M354.15,74.85A8.26,8.26,0,0,0,348.24,67a12.17,12.17,0,0,0-5.8-.41c-3.52.63-6.19,2.44-7.47,6-.32.85-.35,1.33.81,1.23a23.2,23.2,0,0,1,3.12,0,1.29,1.29,0,0,0,1.49-.81,2.89,2.89,0,0,1,1.8-1.49c3.31-1.14,6.9.43,6.7,4.58,0,.39,0,.79,0,1.37a13.24,13.24,0,0,0-7.6-1.29c-3.53.45-6.69,2.93-7.45,5.9-1.06,4.16,1.16,8,5.49,9.4a11.64,11.64,0,0,0,9.57-1.18c-.25,1.19.35,1.32,1.24,1.25a24.82,24.82,0,0,1,3.11,0c.76,0,.93-.23.92-1C354.14,85.3,354.19,80.08,354.15,74.85Zm-6.74,11.68a7.23,7.23,0,0,1-3.67.87,6.2,6.2,0,0,1-3.42-.87,3,3,0,0,1,0-5.25,7.3,7.3,0,0,1,7.09.08A3,3,0,0,1,347.41,86.53Z"/><path class="cls-2" d="M312.69,74.78a8.19,8.19,0,0,0-5.28-7.57,11.84,11.84,0,0,0-6.36-.63c-3.63.62-6.34,2.5-7.59,6.13-.25.73-.27,1.11.69,1.05,1.2-.08,2.4-.05,3.6,0a1.07,1.07,0,0,0,1.11-.65,4.54,4.54,0,0,1,5-1.93,4.15,4.15,0,0,1,3.5,3.61,18.36,18.36,0,0,1,0,2.46c-.09,0-.14.06-.17,0-.29-.11-.57-.25-.87-.36-3.9-1.44-7.68-1.39-11.16,1.12a7.38,7.38,0,0,0,.1,12.06,9.87,9.87,0,0,0,5.6,1.82,11.81,11.81,0,0,0,6.58-1.73c-.21,1,.09,1.38,1,1.3a20.49,20.49,0,0,1,3.23,0c.82.06,1-.25,1-1C312.68,85.24,312.72,80,312.69,74.78ZM306,86.53a7.12,7.12,0,0,1-3.64.87,6,6,0,0,1-3.56-.92,2.94,2.94,0,0,1,.12-5.18,7.25,7.25,0,0,1,7.09,0A3,3,0,0,1,306,86.53Z"/><path class="cls-2" d="M262.34,74.51a7.63,7.63,0,0,0-5-7.22,12,12,0,0,0-7.75-.47c-3.53.92-6.19,3.78-6.52,6.92,1.28,0,2.56,0,3.83,0,.84,0,1.51,0,1.91-1a2.7,2.7,0,0,1,1.75-1.36c3.66-1.18,6.93.89,6.59,4.57,0,.39,0,.79,0,1.23-.17,0-.21.06-.24,0-.26-.11-.5-.24-.76-.34-3.9-1.43-7.67-1.42-11.17,1.08a7.23,7.23,0,0,0-2.8,8c.94,3.33,4.31,5.74,8.18,5.86a11.93,11.93,0,0,0,6.84-1.72c-.27,1.15.21,1.34,1.06,1.28,1.12-.06,2.24,0,3.36,0,.62,0,.82-.16.81-.8C262.37,85.29,262.48,79.9,262.34,74.51Zm-6.51,12a8.38,8.38,0,0,1-3.89.94,6.21,6.21,0,0,1-3.33-.86,2.87,2.87,0,0,1-1.56-2.65,2.76,2.76,0,0,1,1.6-2.62,7.52,7.52,0,0,1,7.12.1A3.06,3.06,0,0,1,255.83,86.47Z"/><path class="cls-3" d="M279.35,118.9c-.81-6.68-6.86-8.5-10.84-5.43.21-1-.2-1.24-.95-1.15a6.37,6.37,0,0,1-1.31,0c-.93-.13-1.22.2-1.21,1.17,0,5.9,0,11.8,0,17.71,0,2.14,0,2.06,2.14,2.16,1.18.06,1.38-.39,1.34-1.42-.07-1.8,0-3.6,0-5.52,4.09,2.7,8.36,1.37,10.18-3A8.89,8.89,0,0,0,279.35,118.9Zm-4.52,4.52a3.9,3.9,0,0,1-5.8.14,1.77,1.77,0,0,1-.52-1.29c0-.79,0-1.59,0-2.39v-1.31c0-1.92.54-2.8,2-3.32a3.92,3.92,0,0,1,4.31,1.24A6.1,6.1,0,0,1,274.83,123.42Z"/><path class="cls-2" d="M219.83,126.32c-2.3-5.85-4.55-11.73-6.81-17.59-.85-2.2-.85-2.16-3.23-2.21a1.26,1.26,0,0,0-1.44,1c-1.23,3.32-2.53,6.61-3.81,9.92l-3.88,10c1,0,1.9,0,2.77,0,.69,0,1-.25,1.18-.87.47-1.4,1.06-2.75,1.52-4.15a1,1,0,0,1,1.21-.82c1.12,0,2.24,0,3.36,0s2.69-.46,3.62.18,1,2.18,1.44,3.33c.9,2.3.87,2.26,3.28,2.31C220.11,127.53,220.2,127.26,219.83,126.32Zm-12.21-7.83,2.81-7.58c1,2.63,1.87,5,2.81,7.58Z"/><path class="cls-2" d="M293.87,117.23a4.92,4.92,0,0,0-3.46-4.83,7.13,7.13,0,0,0-5.37.15,5.17,5.17,0,0,0-3,3.11c-.1.28-.4.8.18.87a23.32,23.32,0,0,0,2.51,0c.57,0,.58-.6.89-.88a2.66,2.66,0,0,1,1.58-.77c2.4-.21,3.5,1,3.35,3.82a8.17,8.17,0,0,0-5.1-.67,4.94,4.94,0,0,0-4.27,4.62,4.76,4.76,0,0,0,3.93,4.88,7.43,7.43,0,0,0,4.8-.48c.21-.1.5-.38.62-.18.76,1.22,1.91.34,2.85.55.52.11.47-.42.47-.76C293.89,123.53,293.93,120.38,293.87,117.23ZM287.54,125c-1.87,0-3.15-.88-3.14-2.19s1.23-2.14,3.17-2.12,3.16.92,3.06,2.34C290.55,124.18,289.29,125,287.54,125Z"/><path class="cls-2" d="M255.2,112c-4.23,0-7.23,3.21-7.25,7.82s3,8,7.09,8,7.27-3.26,7.31-7.79C262.39,115.37,259.44,112,255.2,112Zm3.08,10.85a3.45,3.45,0,0,1-6.26,0,6.92,6.92,0,0,1,0-5.9,3.45,3.45,0,0,1,6.26,0,6.74,6.74,0,0,1,0,5.9Z"/></svg>