<svg id="Layer_1" data-name="Layer 1" xmlns="http://www.w3.org/2000/svg" viewBox="0 0 201.8 187.73"><defs><style>.cls-1{fill:#ce3828;}.cls-2{fill:#9e2d21;}.cls-3{fill:#a62f23;}.cls-4{fill:#b63426;}.cls-5{fill:#ce3929;}.cls-6{fill:#ac3024;}.cls-7{fill:#bf3727;}.cls-8{fill:#b13225;}.cls-9{fill:#c73827;}.cls-10{fill:#922b1e;}.cls-11{fill:#982c20;}.cls-12{fill:#8a281c;}</style></defs><path class="cls-1" d="M125,63.92a20.43,20.43,0,0,1,2.76,12.38,24.36,24.36,0,0,1-5.54,13.87,111.54,111.54,0,0,1-12.64,13.25c-4.06,3.68-7.56,3.32-10.84-1.11C96,98.64,93.34,95,89.88,91.93A5.06,5.06,0,0,0,87,90.54a4.9,4.9,0,0,0-5.1,2.81c-2.82,5.09-5.67,10.16-8.51,15.24L34.06,179.06c-.17.31-.36.61-.6,1-2.12-6.73-2.93-13.23,0-20q9.9-22.66,19-45.65C59,98.32,65,82,70.28,65.5a31.42,31.42,0,0,1,2.18-5.3A19.48,19.48,0,0,1,74,57.65c2-2.65,4.28-3.36,7.37-2.23a42.49,42.49,0,0,1,12.68,7.79,75.72,75.72,0,0,1,11.36,12c1.17,1.52,2.42,3,4.6,3,.13,1,1,.86,1.59,1.12a6.71,6.71,0,0,0,2,.82,8.68,8.68,0,0,1,.89.14,10.4,10.4,0,0,0,3.34,0c4.54-1.22,6.26-4.74,7.22-8.87a17.42,17.42,0,0,1,.38-1.74,3,3,0,0,0,0-1.89c-.33-.91-.32-1.91-.68-2.82a1.59,1.59,0,0,1,0-.75A.66.66,0,0,1,125,63.92Z"/><path class="cls-1" d="M162.62,59.62c1-2.71,1-2.7,3.76-2.67A39.43,39.43,0,0,1,179,58.69a19.92,19.92,0,0,1,2.85,1.23c4.35,2.38,5.95,6.23,4.59,11a28.44,28.44,0,0,1-6.14,10.44c-5.76,6.77-12.65,12.28-19.89,17.36-16.12,11.29-33.56,20.12-51.73,27.54a252.31,252.31,0,0,1-42.94,13.5,6.34,6.34,0,0,1-2.62.34c2.7-4.84,5.39-9.63,8-14.44a1.84,1.84,0,0,1,1.45-.86c29.2-6.84,56.3-18.46,80.88-35.72a66,66,0,0,0,14.65-13.52,17.88,17.88,0,0,0,3.41-6.52,6.3,6.3,0,0,0-3.18-7.52A19.76,19.76,0,0,0,162.62,59.62Z"/><path class="cls-1" d="M130.92,92.45l10.2-26.19a59.46,59.46,0,0,0-7,7.1,29.08,29.08,0,0,0-2.73-11.13,24.41,24.41,0,0,0-2.86-4.69.85.85,0,0,1,0-1.3c11.95-14.65,24.19-29,38.33-41.67q3.68-3.27,7.61-6.21c.7-.51,1.39-1.06,2.24-.36s.47,1.41.16,2.17c-6.05,15-12.6,29.79-19.14,44.58-3.93,8.88-7.95,17.73-12,26.58-2.16,4.76-5.36,8.49-10.42,10.31A11.93,11.93,0,0,1,130.92,92.45Z"/><path class="cls-1" d="M52.38,97.17c-.85,2.23-1.37,4.2-3.22,5.68a42.19,42.19,0,0,0-8.67,9.22,16,16,0,0,0-2.64,5.7,6.11,6.11,0,0,0,2.76,6.83.9.9,0,0,1,.41,1.33q-3.3,7.8-6.53,15.64c-.2.47-.37.83-1,.71a26.23,26.23,0,0,1-8-2.41c-4.47-2.4-6.11-6.29-4.68-11.16,1.24-4.28,3.83-7.77,6.7-11.06,5.71-6.53,12.48-11.86,19.55-16.84C48.74,99.62,50.45,98.48,52.38,97.17Z"/><path class="cls-2" d="M125,63.92l0,.27c-.83-.69-1.34-.35-1.93.44-3.43,4.66-7,9.25-10.49,13.84a3.88,3.88,0,0,1-1,1,2.61,2.61,0,0,1-1.73-.66c-.62-.42,0-.48.23-.64,1.5-.43,1.85-1.74,2.26-3a4.94,4.94,0,0,1,1.43-3.5c2.63-3.38,5.18-6.83,7.81-10.22.33-.41.56-1,1.27-.89A10.35,10.35,0,0,1,125,63.92Z"/><path class="cls-3" d="M122.8,60.61a38.72,38.72,0,0,0-4,5c-2,2.52-3.86,5.14-5.88,7.64-.54.65-.12,1.42-.59,2a24,24,0,0,0-.52-4.78c2.82-3.71,5.66-7.39,8.44-11.12.18-.23.32-.59.74-.42A4.91,4.91,0,0,1,122.8,60.61Z"/><path class="cls-4" d="M115.68,57a4.58,4.58,0,0,1,2.12.49c-2.19,3.19-4.56,6.24-7,9.27a.53.53,0,0,1-.31.17l-1.42-2.19c-.26-.43,0-.75.24-1.07q2.3-3.1,4.67-6.15A1.36,1.36,0,0,1,115.68,57Z"/><path class="cls-5" d="M104.81,62a13.3,13.3,0,0,0-6.39.33c-.44.13-1,.46-1.3-.06s.26-.93.6-1.23c2.14-1.94,4.86-2.67,7.52-3.5a24.67,24.67,0,0,1,2.45-.48c.33.59-.13.95-.4,1.35A28.63,28.63,0,0,0,104.81,62Z"/><path class="cls-6" d="M121,58.9c-2.49,3.27-5,6.55-7.49,9.8-.49.63-.8,1.47-1.69,1.74a5.22,5.22,0,0,1-.48-1.68c-.26-.45,0-.76.29-1.05,2.38-2.83,4.46-5.89,6.77-8.77.37-.46.69-1,1.44-.76A2.25,2.25,0,0,1,121,58.9Z"/><path class="cls-7" d="M115.68,57a1.55,1.55,0,0,0-1.47.76c-1.56,2.15-3.22,4.23-4.82,6.34a2.82,2.82,0,0,0-.28.64l-2.18-1.85c-.2-.52.19-.82.44-1.15.83-1.15,1.81-2.21,2.52-3.43a3.17,3.17,0,0,1,3.89-1.55A4,4,0,0,1,115.68,57Z"/><path class="cls-8" d="M119.79,58.18a1.42,1.42,0,0,0-1,.69c-2.45,3.09-4.63,6.39-7.25,9.35a1.74,1.74,0,0,0-.21.54l-.76-1.84c1.74-2.35,3.46-4.73,5.24-7.05a8.44,8.44,0,0,1,2-2.39A4.41,4.41,0,0,1,119.79,58.18Z"/><path class="cls-9" d="M113.78,56.75a3.41,3.41,0,0,0-3.72,1.81c-.92,1.51-2.08,2.88-3.13,4.32L104.81,62c-.28-.85.48-1.25.81-1.82.64-1.08,1.7-1.87,2.07-3.12A17.34,17.34,0,0,1,113.78,56.75Z"/><path class="cls-10" d="M125,64.91c.62.87.42,2,.73,2.91a.89.89,0,0,1,0,.68c-2.91,3.61-5.64,7.36-8.46,11-.33.42-.55,1-1.2,1.07a5.06,5.06,0,0,1-1.69-.11l-1,0c-.47-.81.2-1.28.58-1.78,3-4,6.13-8.07,9.19-12.11.26-.35.51-.71.8-1S124.5,64.9,125,64.91Z"/><path class="cls-11" d="M125,64.91,117.8,74.2c-1.21,1.57-2.41,3.13-3.59,4.72-.35.46-.82.89-.76,1.56a5.18,5.18,0,0,1-1.92-1,33.23,33.23,0,0,1,3.41-4.67c2.6-3.55,5.28-7,7.93-10.53l.14-.2c1-1.21,1.08-1.21,1.92.07C124.94,64.43,125,64.67,125,64.91Z"/><path class="cls-12" d="M116.32,80.48c1.78-2.76,3.94-5.22,5.87-7.87.88-1.21,1.84-2.36,2.73-3.57.2-.26.37-.51.73-.52a1.33,1.33,0,0,1,0,1.18,16.76,16.76,0,0,1-2.24,6.82,8,8,0,0,1-5.49,4A2.52,2.52,0,0,1,116.32,80.48Z"/></svg>